PathFileType	4	(X/Y/Z)	C:/Users/beibeiliu/ov580/test_trc\sequence.19_training_dense_right.trc
DataRate	CameraRate	NumFrames	NumMarkers	Units	OrigDataRate	OrigDataStartFrame	OrigNumFrames
120	120	10	19	mm	120	44	344
Frame#	Time	ThumbCMC			ThumbMCP			ThumbIP			ThumbTip			IndexMCP			IndexPIP			IndexTip			MiddleMCP			MiddlePIP			MiddleTip			RingMCP			RingPIP			RingTip			PinkyMCP			PinkyPIP			PinkyTip			BackHand1			BackHand2			BackHand3	
		X0	Y0	Z0	X1	Y1	Z1	X2	Y2	Z2	X3	Y3	Z3	X4	Y4	Z4	X5	Y5	Z5	X6	Y6	Z6	X7	Y7	Z7	X8	Y8	Z8	X9	Y9	Z9	X10	Y10	Z10	X11	Y11	Z11	X12	Y12	Z12	X13	Y13	Z13	X14	Y14	Z14	X15	Y15	Z15	X16	Y16	Z16	X17	Y17	Z17	X18	Y18	Z18	
43	0.358333	222.526	7.81674	39.9607	216.014	5.56102	13.735	215.886	8.80862	-9.91432	220.589	8.78264	-30.7068	242.925	24.226	-20.7792	234.58	-1.53881	-38.0785	228.617	-16.7265	-15.9488	257.047	9.95868	-22.7236	245.45	-18.0769	-26.0923	241.069	-17.3809	5.11901	269.706	-1.69255	-16.9393	253.392	-24.4433	-7.91562	253.488	-17.1275	17.0991	283.404	-12.232	-7.93665	264.459	-26.2861	-0.0473697	259.911	-15.293	22.782	275.279	20.4144	29.4568	273.212	16.6243	52.5044	251.71	24.748	40.3606	
44	0.366667	226.437	9.18421	35.575	216.666	5.40698	12.3391	216.065	7.80751	-11.3972	219.2	7.99817	-34.0075	241.206	23.8385	-27.499	235.925	0.579809	-39.0727	233.492	-16.8875	-12.982	256.17	9.48612	-26.0108	249.881	-18.6478	-24.7502	242.346	-14.6191	6.24802	269.606	-3.86588	-18.6708	254.064	-23.3458	-7.92143	253.534	-14.0961	16.5125	280.476	-7.16944	-6.41561	265.891	-24.987	1.99916	258.268	-10.8813	19.9853	276.213	25.167	25.1607	271.646	16.939	54.7491	248.084	27.9396	39.2113	
45	0.375	224.473	10.148	34.6537	215.273	6.26858	7.42294	213.19	8.1198	-15.9899	217.366	7.0197	-39.0338	242.134	24.8839	-24.5971	235.751	-0.670539	-38.788	231.607	-16.1411	-11.3581	255.508	12.1656	-26.8296	248.768	-15.7141	-28.2549	244.007	-13.4	5.70711	269.59	2.97049	-16.5322	256.141	-21.0725	-8.57282	251.807	-11.4882	16.4653	283.66	-6.76877	-7.83382	267.747	-20.6741	-1.84331	260.293	-11.8377	23.7271	271.067	27.4677	25.9651	271.828	22.9402	55.1396	243.358	32.4201	34.5048	
46	0.383333	219.446	10.9643	32.6055	214.984	5.57766	7.14007	213.558	6.32186	-20.0032	218.229	4.11711	-36.0601	236.595	23.0792	-27.8792	239.501	-3.05122	-38.6706	235.609	-16.5141	-9.47348	256.537	12.5339	-26.9184	250.375	-16.7079	-26.1736	244.958	-12.5361	5.0399	269.408	5.13709	-17.5988	257.484	-19.4721	-8.70055	251.941	-8.67122	16.1148	285.354	-4.26962	-8.24203	268.925	-20.4384	4.1798	258.554	-6.62999	19.9017	273.575	30.5402	21.4185	269.012	29.3141	49.093	244.241	34.2126	33.1151	
47	0.391667	221.559	12.3122	34.4908	211.591	4.88924	4.75286	211.785	3.97666	-18.5163	221.163	3.48732	-38.4801	235.582	22.0576	-29.0858	242.418	-6.32635	-38.249	233.284	-18.0103	-12.4581	259.372	10.235	-28.5223	252.35	-18.8177	-22.5747	242.24	-10.5269	6.88799	271.425	5.49364	-17.3555	261.367	-20.2039	-5.42367	252.68	-8.17057	15.7505	284.215	-0.462133	-6.7079	268.226	-16.1485	0.861907	257.152	-5.11443	20.0252	271.281	35.3179	23.2949	263.043	33.235	50.932	240.268	36.0804	33.8706	
48	0.4	217.474	13.1341	31.1706	210.278	3.12426	4.6195	213.787	2.25405	-21.5142	218.663	-1.47816	-37.881	239.629	17.1303	-35.0932	239.231	-7.355	-40.3843	238.286	-18.9144	-12.2289	259.785	9.15461	-28.9822	253.842	-18.4011	-23.5251	243.52	-11.1993	7.00369	269.88	5.31633	-19.1766	263.28	-17.9964	-8.50107	254.193	-3.19899	18.9923	285.342	3.69323	-5.07346	273.834	-16.9409	4.79117	258.073	-3.54727	20.0401	268.103	37.2831	22.6914	262.443	38.5186	46.4656	237.358	38.7365	29.5461	
49	0.408333	218.628	15.2234	27.9731	212.333	4.82622	-1.03452	213.108	-0.733385	-20.3756	220.752	-3.43386	-40.9978	239.397	16.4112	-32.9488	243.379	-12.9831	-34.837	238.093	-17.3119	-6.35603	255.448	11.6548	-28.5706	258.415	-19.9926	-18.8621	246.217	-12.1042	7.06828	273.746	4.10241	-18.1454	262.287	-17.0081	-7.91709	252.669	-2.7967	18.5139	282.934	7.43083	-5.95588	274.596	-13.8761	5.54579	258.088	-3.3247	20.511	265.674	40.6219	17.6668	256.879	40.1273	42.9313	235.291	41.4558	26.6303	
50	0.416667	213.927	13.9486	23.9391	209.181	0.134584	-0.443055	213.307	-3.53408	-20.842	219.378	-7.21528	-43.3497	236.187	13.1244	-37.3338	242.214	-15.1561	-36.5795	238.702	-20.1181	-7.81024	255.837	6.4596	-32.3135	256.059	-18.9928	-22.8749	249.978	-10.8857	9.04726	273.649	5.75282	-19.0409	265.423	-16.0773	-6.67167	254.61	-1.74603	18.9266	282.389	7.79222	-7.08985	271.008	-11.4716	2.10644	261.605	-0.513517	23.0076	259.933	42.5138	11.6472	253.51	44.985	39.0087	233.446	40.7309	24.5265	
51	0.425	211.4	10.8648	26.0436	211.32	-0.175202	-2.54729	215.659	-6.03078	-21.3097	220.308	-10.4833	-43.064	235.893	12.7776	-36.181	244.632	-14.0103	-37.2008	237.986	-21.327	-7.05299	254.678	9.83702	-31.0597	257.985	-19.2678	-23.497	244.789	-11.7726	8.05847	273.359	8.0246	-19.4302	262.415	-15.9597	-4.79704	254.041	-1.005	18.2402	281.262	8.66443	-9.4132	276.824	-9.39704	2.80735	258.114	2.66111	22.4046	257.128	43.8687	9.37349	253.492	46.6218	38.6064	227.719	41.1721	20.6719	
52	0.433333	211.163	10.3741	23.4878	210.362	-5.53771	-1.95573	217.55	-8.91604	-23.157	219.122	-16.3635	-41.564	237.433	6.1446	-38.5792	243.852	-20.4288	-35.0002	242.958	-19.025	-3.26217	256.84	5.73831	-33.4263	257.966	-20.6165	-22.7984	249.818	-11.0447	8.51034	270.022	4.99206	-21.7335	265.739	-14.874	-5.3815	253.7	-0.499727	17.5302	280.359	11.7269	-10.5285	274.176	-8.70725	1.47871	258.426	1.43565	19.6351	256.361	45.2296	8.78098	246.123	45.7677	38.008	228.051	39.0769	18.346	
